<svg width="135" height="24" viewBox="0 0 135 24" fill="none" xmlns="http://www.w3.org/2000/svg">
<path d="M33.7116 9.43242C32.6233 10.4929 32.093 11.7766 32.093 13.2836C32.093 14.8185 32.6233 16.0743 33.6837 17.1068C34.7442 18.1394 36.0558 18.6417 37.6465 18.6417C38.5953 18.6417 39.5721 18.3906 40.5209 17.8882V14.7906C39.9628 15.4882 39.4605 15.9347 39.0419 16.1859C38.5953 16.4371 38.1209 16.5487 37.5349 16.5487C36.6419 16.5487 35.9163 16.2417 35.3302 15.6278C34.7721 15.0138 34.493 14.2324 34.493 13.2557C34.493 12.3068 34.8 11.5254 35.386 10.9115C35.9721 10.2975 36.6977 9.99056 37.5907 9.99056C38.1488 9.99056 38.6512 10.1301 39.0698 10.3813C39.4884 10.6324 39.9907 11.0789 40.5209 11.7487V8.59521C39.6279 8.12079 38.6791 7.86963 37.6744 7.86963C36.1116 7.86963 34.8 8.39986 33.7116 9.43242Z" fill="#212121"/>
<path d="M48.5023 7.87C47.4977 7.87 46.5488 8.26069 45.7116 9.01418V0.64209H43.3395V18.363H45.7116V13.4235C45.7116 12.1677 45.8791 11.2746 46.214 10.7723C46.5488 10.27 47.1349 10.0188 47.9442 10.0188C48.5861 10.0188 49.0605 10.2142 49.3395 10.577C49.6186 10.9398 49.7861 11.5258 49.7861 12.363V18.4188H52.1581V12.1119C52.1581 10.6886 51.8512 9.65604 51.2651 8.98628C50.5954 8.23279 49.6744 7.87 48.5023 7.87Z" fill="#212121"/>
<path fill-rule="evenodd" clip-rule="evenodd" d="M59.4698 7.8418C60.6698 7.8418 61.7302 8.34412 62.6791 9.32087V8.14877H65.0512V18.3348H62.6791V17.2744C61.7302 18.1953 60.6698 18.6418 59.5535 18.6418C58.1302 18.6418 56.9581 18.1395 56.0372 17.1069C55.1163 16.0744 54.6698 14.7627 54.6698 13.1999C54.6698 11.6651 55.1163 10.4092 56.0372 9.37668C56.9581 8.34412 58.1023 7.8418 59.4698 7.8418ZM59.9163 16.5488C60.7814 16.5488 61.507 16.2697 62.0372 15.6558C62.5674 15.0139 62.8465 14.2325 62.8465 13.2837C62.8465 12.3348 62.5674 11.5255 62.0372 10.9116C61.507 10.2976 60.8093 9.99063 59.9442 9.99063C59.1349 9.99063 58.4651 10.2976 57.907 10.9116C57.3767 11.5534 57.0977 12.3069 57.0977 13.2278C57.0977 14.2046 57.3488 15.0139 57.8791 15.6278C58.4093 16.2418 59.107 16.5488 59.9163 16.5488Z" fill="#212121"/>
<path d="M71.5535 8.12094C71.2186 8.28838 70.8279 8.59536 70.4093 9.04187V8.12094H68.0372V18.3349H70.4093V13.0326C70.4093 11.0791 71.0512 10.1023 72.3349 10.1023C72.7535 10.1023 73.2 10.2698 73.6465 10.5768L74.7349 8.42792C74.0651 8.00931 73.3953 7.81396 72.7814 7.81396C72.307 7.86978 71.8884 7.9535 71.5535 8.12094Z" fill="#212121"/>
<path fill-rule="evenodd" clip-rule="evenodd" d="M83.5814 9.26258C82.7214 8.3334 81.67 7.8418 80.4 7.8418C78.9209 7.8418 77.7488 8.39994 76.8558 9.48831C76.0186 10.5209 75.6 11.8046 75.6 13.2837C75.6 14.8185 76.0465 16.1023 76.9395 17.1069C77.8326 18.1116 78.9768 18.6139 80.3721 18.6139C81.6 18.6139 82.6884 18.1395 83.6093 17.1627V18.586C83.6093 20.7069 82.7442 21.7674 81.014 21.7674C80.0651 21.7674 79.3674 21.4604 78.8651 20.8185C78.6419 20.5395 78.5023 20.1488 78.4186 19.6464H76.0465C76.1861 20.986 76.7163 22.0185 77.6093 22.772C78.5023 23.4976 79.6186 23.8604 80.9861 23.8604C82.6047 23.8604 83.8605 23.3302 84.7814 22.2697C85.2837 21.7116 85.5907 21.0697 85.7581 20.2883C85.814 20.0092 85.8698 19.6744 85.8977 19.3116C85.9256 18.9488 85.9535 18.5302 85.9535 18.0278V8.14877H83.5814V9.26258ZM80.8186 16.5488C81.7395 16.5488 82.4372 16.2418 82.9674 15.572C83.4419 14.9581 83.693 14.2046 83.693 13.2558C83.693 12.279 83.414 11.4697 82.8837 10.8837C82.3535 10.2697 81.6558 9.96273 80.8186 9.96273C79.9256 9.96273 79.2279 10.2976 78.6977 10.9674C78.2233 11.5813 78 12.3348 78 13.2837C78 14.2046 78.2233 14.986 78.6977 15.572C79.2 16.2139 79.8977 16.5488 80.8186 16.5488Z" fill="#212121"/>
<path fill-rule="evenodd" clip-rule="evenodd" d="M93.6 16.5488C94.186 16.5488 94.6605 16.4092 95.0512 16.1302C95.4419 15.8511 95.8605 15.3209 96.307 14.5953L98.2884 15.7116C97.9814 16.2139 97.6465 16.6883 97.3116 17.0511C96.9767 17.4139 96.614 17.7209 96.2233 17.972C95.8326 18.2232 95.414 18.3906 94.9674 18.5023C94.5209 18.6139 94.0186 18.6697 93.4884 18.6697C91.9535 18.6697 90.7256 18.1674 89.8047 17.1906C88.8837 16.186 88.4093 14.8744 88.4093 13.2558C88.4093 11.6371 88.8558 10.3255 89.7488 9.32087C90.6698 8.34412 91.8698 7.8418 93.3488 7.8418C94.8558 7.8418 96.0558 8.34412 96.9209 9.29296C97.786 10.2418 98.2326 11.5813 98.2326 13.2558V13.8139H90.9209C90.9767 14.6511 91.2558 15.3209 91.7302 15.8232C92.2326 16.2976 92.8465 16.5488 93.6 16.5488ZM91.9535 10.5209C91.7581 10.6883 91.5628 10.8837 91.4233 11.1069C91.2837 11.3302 91.1721 11.5813 91.0884 11.8883H95.8326C95.5256 10.6325 94.7163 9.99063 93.4605 9.99063C93.1814 9.99063 92.9023 10.0464 92.6512 10.1302C92.4 10.2418 92.1488 10.3534 91.9535 10.5209Z" fill="#212121"/>
<path d="M102.67 15.7397C102.279 15.7397 101.916 15.8793 101.637 16.1584C101.358 16.4374 101.219 16.7723 101.219 17.163C101.219 17.5816 101.358 17.9444 101.637 18.2235C101.916 18.5025 102.251 18.6421 102.67 18.6421C103.088 18.6421 103.423 18.5025 103.702 18.2235C103.981 17.9444 104.121 17.5816 104.121 17.1909C104.121 16.8002 103.981 16.4374 103.702 16.1584C103.395 15.8793 103.06 15.7397 102.67 15.7397Z" fill="#212121"/>
<path d="M117.209 13.9816L114.307 7.2002L111.405 13.9816L108.753 8.14903H106.074L111.433 19.1444L114.307 12.5583L117.153 19.1444L122.484 8.14903H119.86L117.209 13.9816Z" fill="#212121"/>
<path fill-rule="evenodd" clip-rule="evenodd" d="M129.628 7.8418C131.023 7.8418 132.167 8.37203 133.088 9.40459C134.009 10.4371 134.484 11.7488 134.456 13.2837C134.456 14.8185 134.009 16.0744 133.088 17.1069C132.195 18.1395 131.051 18.6418 129.656 18.6418C128.456 18.6418 127.395 18.1395 126.447 17.1906V23.8883H124.074V8.12087H126.447V9.23715C127.395 8.31622 128.456 7.8418 129.628 7.8418ZM129.209 16.5488C130.047 16.5488 130.716 16.2418 131.247 15.6278C131.805 15.0139 132.056 14.2325 132.084 13.3116C132.084 12.3348 131.805 11.5255 131.274 10.9116C130.744 10.2976 130.047 9.99063 129.237 9.99063C128.344 9.99063 127.647 10.2697 127.116 10.8837C126.586 11.4976 126.307 12.279 126.307 13.2558C126.307 14.2046 126.586 15.0139 127.116 15.6278C127.647 16.2418 128.344 16.5488 129.209 16.5488Z" fill="#212121"/>
<path d="M21.7116 4.88392C21.6558 4.8002 21.6 4.74438 21.5442 4.66066C21.4884 4.60485 21.4326 4.52113 21.4047 4.46531C21.2093 4.18624 20.986 3.93508 20.7349 3.68392C20.707 3.65601 20.6791 3.62811 20.6512 3.6002C20.5953 3.54438 20.5674 3.48857 20.5116 3.46066C20.3442 3.29322 20.1767 3.12578 20.0093 2.98624C19.9814 2.95834 19.9256 2.93043 19.8977 2.90252C19.7023 2.73508 19.5349 2.59555 19.3395 2.45601C19.2837 2.42811 19.2558 2.4002 19.2 2.34438C19.0326 2.23276 18.893 2.12113 18.7256 2.03741C18.614 1.95369 18.4744 1.86997 18.3628 1.81415C18.2791 1.75834 18.1953 1.73043 18.1116 1.67462C18.0279 1.6188 17.9442 1.56299 17.8326 1.50717C17.8326 1.50717 17.8326 1.50717 17.8047 1.47927C17.5814 1.33973 17.3023 1.22811 17.0512 1.11648C16.3256 0.809501 15.5721 0.558338 14.8186 0.390896C11.4977 -0.390499 8.14884 0.16764 5.35814 2.03741C2.0093 4.24206 0 7.95369 0 11.9723C0 14.9862 1.14419 17.8886 3.1814 20.0932C5.2186 22.2979 7.98139 23.6374 10.9674 23.8607C11.0233 23.8607 11.0791 23.8607 11.1349 23.8607C11.414 23.8607 11.7209 23.8048 11.9721 23.6653C12.1395 23.5816 12.307 23.47 12.4465 23.3304C12.7814 23.0235 12.9767 22.6328 13.0326 22.1862C13.0326 22.1025 13.0605 21.9909 13.0605 21.9072V18.3351C13.0605 18.3072 13.0605 18.2793 13.0605 18.2514V18.2235C13.0605 18.1955 13.0605 18.1955 13.0605 18.1955C13.0605 18.1397 13.0605 18.0839 13.0605 18.056C13.0605 17.4421 12.5581 16.9397 11.9442 16.9397C9.93488 16.9397 8.28837 15.2932 8.28837 13.2839V10.9955V10.9676H15.5163V13.256C15.5163 13.6467 15.4605 14.0095 15.3488 14.3723C14.9581 15.2095 14.4279 15.9909 13.814 16.6886C13.7302 17.2188 13.7302 18.1955 14.6233 19.0607C15.8233 17.9723 16.7721 16.6607 17.4419 15.2374C17.4419 15.2374 17.6372 14.8467 17.7488 13.9816C17.7767 13.7862 17.8047 13.563 17.8047 13.3118C17.8047 13.256 17.8047 13.2002 17.8047 13.1723V13.1165V11.5816V9.82345C17.7767 9.2095 17.2744 8.70718 16.6326 8.70718H16.1302H16.0186H15.5163H15.4884H15.0419V6.19555C15.0419 5.58159 14.5395 5.07927 13.9256 5.07927C13.3116 5.07927 12.8093 5.58159 12.8093 6.19555V8.70718H10.9395V6.19555C10.9395 5.58159 10.4372 5.07927 9.82326 5.07927C9.2093 5.07927 8.70698 5.58159 8.70698 6.19555V8.70718H8.20465H8.12093H7.14419C6.53023 8.70718 6.02791 9.2095 6.02791 9.82345V10.2979V10.9955V13.2839C6.02791 14.7072 6.53023 16.0746 7.47907 17.1351C8.34419 18.1397 9.51628 18.8095 10.8 19.0607V21.5723C10.493 21.5444 10.2419 21.4886 9.96279 21.4328C5.55349 20.5118 2.26047 16.5769 2.26047 11.9723C2.26047 8.70717 3.87907 5.69322 6.61395 3.90718C9.40465 2.06531 12.893 1.81415 16.186 3.2095C17.3581 3.68392 18.3349 4.38159 19.1442 5.30252C19.1442 5.30252 21.2651 7.6188 21.5721 11.0235C21.5721 11.0793 21.5721 11.1351 21.6 11.1909C21.7395 13.2839 21.2093 15.7955 19.1163 18.4188C19.0326 18.949 19.0326 19.9258 19.8977 20.8188C21.7674 19.1444 23.0512 16.9676 23.6093 14.5397C24.1953 12.0002 23.8884 9.26531 22.7163 6.64206C22.4372 6.02811 22.1023 5.44206 21.7116 4.88392Z" fill="#212121"/>
</svg>
