<svg width="16" height="16" viewBox="0 0 16 16" fill="none" xmlns="http://www.w3.org/2000/svg">
<path fill-rule="evenodd" clip-rule="evenodd" d="M3 0H13C14.6572 0 16 1.34277 16 3V13C16 14.6572 14.6572 16 13 16H3C1.34277 16 0 14.6572 0 13V3C0 1.34277 1.34277 0 3 0ZM6.31775 10.1044C6.31775 11.1154 7.06348 12.5516 9.0321 12.5177C9.69629 12.5063 10.434 12.2284 10.5968 11.9883L10.1622 10.6998C9.99414 10.78 9.67285 10.8497 9.43323 10.8557C8.70972 10.8751 8.56934 10.3475 8.56348 9.96509V7.15198H10.3783V5.78369H8.5697V3.48169H7.24634C7.22461 3.48169 7.18652 3.50073 7.18115 3.54919C7.10376 4.25366 6.77417 5.49023 5.40308 5.98462V7.15186H6.31775V10.1044Z" fill="#212121"/>
</svg>
