<svg width="16" height="16" viewBox="0 0 16 16" fill="none" xmlns="http://www.w3.org/2000/svg">
<path fill-rule="evenodd" clip-rule="evenodd" d="M2.34375 0H13.6562C14.9485 0 16 1.05151 16 2.34375V13.6562C16 14.9485 14.9485 16 13.6562 16H2.34375C1.05151 16 0 14.9485 0 13.6562V2.34375C0 1.05151 1.05151 0 2.34375 0ZM3.78125 12.6875H5.65625V6.125H3.78125V12.6875ZM5.65625 5.1875H3.78125V3.3125H5.65625V5.1875ZM10.3438 12.6875H12.2188V8.61523C12.2188 7.26709 11.1466 6.12634 9.875 6.125C9.43966 6.125 9.15205 6.23209 8.83717 6.34935C8.721 6.3926 8.60113 6.43724 8.46875 6.47839V6.125H6.59375V12.6875H8.46875V8.9375C8.46875 8.42065 8.8894 8 9.40625 8C9.9231 8 10.3438 8.42065 10.3438 8.9375V12.6875Z" fill="#212121"/>
</svg>
