<svg width="29" height="26" viewBox="0 0 29 26" fill="none" xmlns="http://www.w3.org/2000/svg">
<path d="M6.1082 0.299996C7.64154 0.299996 8.9082 0.833331 9.9082 1.9C10.9082 2.9 11.4082 4.16666 11.4082 5.7C11.4082 6.5 11.2749 7.36666 11.0082 8.29999C10.8082 9.16666 10.5082 10.2 10.1082 11.4L5.8082 25.2H1.0082L4.5082 10.8C3.37487 10.4667 2.47487 9.86666 1.8082 9C1.14154 8.06666 0.808203 6.96666 0.808203 5.7C0.808203 4.1 1.3082 2.8 2.3082 1.79999C3.3082 0.799996 4.57487 0.299996 6.1082 0.299996ZM23.1082 0.299996C24.6415 0.299996 25.9082 0.833331 26.9082 1.9C27.9082 2.9 28.4082 4.16666 28.4082 5.7C28.4082 6.5 28.2749 7.36666 28.0082 8.29999C27.8082 9.16666 27.5082 10.2 27.1082 11.4L22.8082 25.2H18.0082L21.5082 10.8C20.3749 10.4667 19.4749 9.86666 18.8082 9C18.1415 8.06666 17.8082 6.96666 17.8082 5.7C17.8082 4.1 18.3082 2.8 19.3082 1.79999C20.3082 0.799996 21.5749 0.299996 23.1082 0.299996Z" fill="#4CBAD8"/>
</svg>
