<svg width="16" height="16" viewBox="0 0 16 16" fill="none" xmlns="http://www.w3.org/2000/svg">
<path fill-rule="evenodd" clip-rule="evenodd" d="M3 0H13C14.6572 0 16 1.34277 16 3V13C16 14.6572 14.6572 16 13 16H3C1.34277 16 0 14.6572 0 13V3C0 1.34277 1.34277 0 3 0ZM11.096 8.61662H12.5932L12.7969 6.74954H11.096L11.0991 5.70154C11.0991 5.20308 11.1458 4.93662 11.8609 4.93662H12.9422V3.07692H11.0806C9.24369 3.07692 8.59631 4.00246 8.59569 5.56123V6.75015H7.62585V8.61662H8.59569V14.1575H11.096V8.61662Z" fill="#212121"/>
</svg>
