<svg width="12" height="9" viewBox="0 0 12 9" fill="none" xmlns="http://www.w3.org/2000/svg">
<path d="M0.601222 4.86518H9.56578L7.21955 7.21141C6.98493 7.44604 6.98493 7.82241 7.21955 8.05703C7.33686 8.17435 7.48839 8.233 7.64481 8.233C7.80122 8.233 7.95275 8.17435 8.07006 8.05703L11.4379 4.68921C11.6725 4.45459 11.6725 4.07822 11.4379 3.84359L8.07006 0.475772C7.83544 0.241149 7.45906 0.241149 7.22444 0.475772C6.98982 0.710395 6.98982 1.08677 7.22444 1.32139L9.57067 3.66763H0.601222C0.268839 3.66763 0 3.93646 0 4.26885C0 4.60123 0.268839 4.86518 0.601222 4.86518Z" fill="white"/>
</svg>
