<svg width="29" height="26" viewBox="0 0 29 26" fill="none" xmlns="http://www.w3.org/2000/svg">
<path d="M22.8918 0.299996C21.3585 0.299996 20.0918 0.833331 19.0918 1.9C18.0918 2.9 17.5918 4.16666 17.5918 5.7C17.5918 6.5 17.7251 7.36666 17.9918 8.29999C18.1918 9.16666 18.4918 10.2 18.8918 11.4L23.1918 25.2H27.9918L24.4918 10.8C25.6251 10.4667 26.5251 9.86666 27.1918 9C27.8585 8.06666 28.1918 6.96666 28.1918 5.7C28.1918 4.1 27.6918 2.8 26.6918 1.79999C25.6918 0.799996 24.4251 0.299996 22.8918 0.299996ZM5.8918 0.299996C4.35846 0.299996 3.0918 0.833331 2.09179 1.9C1.0918 2.9 0.591796 4.16666 0.591796 5.7C0.591796 6.5 0.725129 7.36666 0.991796 8.29999C1.1918 9.16666 1.4918 10.2 1.8918 11.4L6.19179 25.2H10.9918L7.4918 10.8C8.62513 10.4667 9.52513 9.86666 10.1918 9C10.8585 8.06666 11.1918 6.96666 11.1918 5.7C11.1918 4.1 10.6918 2.8 9.6918 1.79999C8.6918 0.799996 7.42513 0.299996 5.8918 0.299996Z" fill="#4CBAD8"/>
</svg>
