<svg width="16" height="16" viewBox="0 0 16 16" fill="none" xmlns="http://www.w3.org/2000/svg">
<path fill-rule="evenodd" clip-rule="evenodd" d="M13.6562 0H2.34375C1.05 0 0 1.05 0 2.34375V13.6562C0 14.95 1.05 16 2.34375 16H13.6562C14.95 16 16 14.95 16 13.6562V2.34375C16 1.05 14.95 0 13.6562 0ZM3.78125 8.03125C3.78125 10.3562 5.67503 12.25 8 12.25C10.325 12.25 12.2188 10.3562 12.2188 8.03125C12.2188 5.70622 10.325 3.8125 8 3.8125C5.67503 3.8125 3.78125 5.70622 3.78125 8.03125ZM13.1562 3.8125C12.6406 3.8125 12.2188 3.39062 12.2188 2.875C12.2188 2.35938 12.6406 1.9375 13.1562 1.9375C13.6719 1.9375 14.0938 2.35938 14.0938 2.875C14.0938 3.39062 13.6719 3.8125 13.1562 3.8125ZM4.71875 8.03125C4.71875 6.22188 6.19063 4.75 8 4.75C9.80937 4.75 11.2812 6.22188 11.2812 8.03125C11.2812 9.84062 9.80937 11.3125 8 11.3125C6.19063 11.3125 4.71875 9.84062 4.71875 8.03125Z" fill="#212121"/>
</svg>
